<mxfile host="app.diagrams.net" modified="2024-05-24T15:05:54.376Z" agent="Mozilla/5.0 (Windows NT 10.0; Win64; x64) AppleWebKit/537.36 (KHTML, like Gecko) Chrome/125.0.0.0 Safari/537.36" etag="kfg8Z-GHe7s1e9jWvblM" version="24.4.8" type="google">
  <diagram name="Page-1" id="e7e014a7-5840-1c2e-5031-d8a46d1fe8dd">
    <mxGraphModel grid="0" page="0" gridSize="10" guides="1" tooltips="1" connect="1" arrows="1" fold="1" pageScale="1" pageWidth="1169" pageHeight="826" background="none" math="0" shadow="0">
      <root>
        <mxCell id="0" />
        <mxCell id="1" parent="0" />
        <mxCell id="2" value="購入ユーザー" style="swimlane;whiteSpace=wrap" vertex="1" parent="1">
          <mxGeometry x="161.5" y="39" width="280" height="3521" as="geometry" />
        </mxCell>
        <mxCell id="WvElCNo4vnSuFBghOQTC-68" value="&lt;span style=&quot;font-size: 11px;&quot;&gt;レジへボタンを押下&lt;/span&gt;" style="rounded=1;whiteSpace=wrap;html=1;arcSize=40;" vertex="1" parent="2">
          <mxGeometry x="78.5" y="841" width="120" height="40" as="geometry" />
        </mxCell>
        <mxCell id="79C8k76Zv3gLMIBIUcLn-18" value="" style="ellipse;html=1;shape=endState;fillColor=#000000;strokeColor=default;" vertex="1" parent="2">
          <mxGeometry x="124" y="3451" width="30" height="30" as="geometry" />
        </mxCell>
        <mxCell id="ujE0xhHbQEDL6SDgRYvv-183" style="edgeStyle=orthogonalEdgeStyle;rounded=0;orthogonalLoop=1;jettySize=auto;html=1;entryX=0.5;entryY=0;entryDx=0;entryDy=0;" edge="1" parent="2" source="3yCVu83lC0UBpUjsyana-39" target="79C8k76Zv3gLMIBIUcLn-18">
          <mxGeometry relative="1" as="geometry" />
        </mxCell>
        <mxCell id="3yCVu83lC0UBpUjsyana-39" value="&lt;span style=&quot;font-size: 11px;&quot;&gt;購入完了を確認&lt;/span&gt;" style="rounded=1;whiteSpace=wrap;html=1;arcSize=40;" vertex="1" parent="2">
          <mxGeometry x="78.5" y="3361" width="120" height="40" as="geometry" />
        </mxCell>
        <mxCell id="3yCVu83lC0UBpUjsyana-81" style="edgeStyle=orthogonalEdgeStyle;rounded=0;orthogonalLoop=1;jettySize=auto;html=1;entryX=0.5;entryY=0;entryDx=0;entryDy=0;" edge="1" parent="2" source="3yCVu83lC0UBpUjsyana-74" target="3yCVu83lC0UBpUjsyana-79">
          <mxGeometry relative="1" as="geometry" />
        </mxCell>
        <mxCell id="ujE0xhHbQEDL6SDgRYvv-84" style="edgeStyle=orthogonalEdgeStyle;rounded=0;orthogonalLoop=1;jettySize=auto;html=1;entryX=0;entryY=0.5;entryDx=0;entryDy=0;" edge="1" parent="2" source="3yCVu83lC0UBpUjsyana-74" target="3yCVu83lC0UBpUjsyana-90">
          <mxGeometry relative="1" as="geometry">
            <Array as="points">
              <mxPoint x="39" y="942" />
              <mxPoint x="39" y="1741" />
            </Array>
          </mxGeometry>
        </mxCell>
        <mxCell id="3yCVu83lC0UBpUjsyana-74" value="" style="rhombus;whiteSpace=wrap;html=1;" vertex="1" parent="2">
          <mxGeometry x="109.5" y="921" width="60" height="41" as="geometry" />
        </mxCell>
        <mxCell id="3yCVu83lC0UBpUjsyana-78" value="支払い方法が未登録&lt;div&gt;である場合&lt;/div&gt;" style="text;html=1;align=center;verticalAlign=middle;resizable=0;points=[];autosize=1;strokeColor=none;fillColor=none;" vertex="1" parent="2">
          <mxGeometry x="138.5" y="962" width="130" height="40" as="geometry" />
        </mxCell>
        <mxCell id="3yCVu83lC0UBpUjsyana-79" value="支払い方法の&lt;div&gt;登録ボタンを押下&lt;/div&gt;" style="rounded=1;whiteSpace=wrap;html=1;arcSize=40;" vertex="1" parent="2">
          <mxGeometry x="80" y="1001" width="120" height="40" as="geometry" />
        </mxCell>
        <mxCell id="ujE0xhHbQEDL6SDgRYvv-89" style="edgeStyle=orthogonalEdgeStyle;rounded=0;orthogonalLoop=1;jettySize=auto;html=1;entryX=0.5;entryY=0;entryDx=0;entryDy=0;" edge="1" parent="2" source="3yCVu83lC0UBpUjsyana-84" target="ujE0xhHbQEDL6SDgRYvv-66">
          <mxGeometry relative="1" as="geometry" />
        </mxCell>
        <mxCell id="3yCVu83lC0UBpUjsyana-84" value="支払い情報を入力" style="rounded=1;whiteSpace=wrap;html=1;arcSize=40;" vertex="1" parent="2">
          <mxGeometry x="78.5" y="1081" width="120" height="40" as="geometry" />
        </mxCell>
        <mxCell id="ujE0xhHbQEDL6SDgRYvv-168" style="edgeStyle=orthogonalEdgeStyle;rounded=0;orthogonalLoop=1;jettySize=auto;html=1;entryX=0.5;entryY=0;entryDx=0;entryDy=0;" edge="1" parent="2" source="3yCVu83lC0UBpUjsyana-90" target="ujE0xhHbQEDL6SDgRYvv-120">
          <mxGeometry relative="1" as="geometry" />
        </mxCell>
        <mxCell id="3yCVu83lC0UBpUjsyana-90" value="&lt;span style=&quot;font-size: 11px;&quot;&gt;支払い方法を選択&lt;/span&gt;" style="rounded=1;whiteSpace=wrap;html=1;arcSize=40;" vertex="1" parent="2">
          <mxGeometry x="78.5" y="1721" width="120" height="40" as="geometry" />
        </mxCell>
        <mxCell id="3yCVu83lC0UBpUjsyana-92" value="支払い方法が登録済み&lt;div&gt;である場合&lt;/div&gt;" style="text;html=1;align=center;verticalAlign=middle;resizable=0;points=[];autosize=1;strokeColor=none;fillColor=none;" vertex="1" parent="2">
          <mxGeometry y="901" width="140" height="40" as="geometry" />
        </mxCell>
        <mxCell id="ujE0xhHbQEDL6SDgRYvv-66" value="登録ボタンを押下" style="rounded=1;whiteSpace=wrap;html=1;arcSize=40;" vertex="1" parent="2">
          <mxGeometry x="78.5" y="1160" width="120" height="40" as="geometry" />
        </mxCell>
        <mxCell id="ujE0xhHbQEDL6SDgRYvv-116" style="edgeStyle=orthogonalEdgeStyle;rounded=0;orthogonalLoop=1;jettySize=auto;html=1;entryX=0;entryY=0.5;entryDx=0;entryDy=0;" edge="1" parent="2" source="ujE0xhHbQEDL6SDgRYvv-114" target="3yCVu83lC0UBpUjsyana-84">
          <mxGeometry relative="1" as="geometry">
            <Array as="points">
              <mxPoint x="138" y="1561" />
              <mxPoint x="59" y="1561" />
              <mxPoint x="59" y="1101" />
            </Array>
          </mxGeometry>
        </mxCell>
        <mxCell id="ujE0xhHbQEDL6SDgRYvv-114" value="エラー内容を&lt;div&gt;確認&lt;/div&gt;" style="rounded=1;whiteSpace=wrap;html=1;arcSize=40;" vertex="1" parent="2">
          <mxGeometry x="78.5" y="1481" width="120" height="40" as="geometry" />
        </mxCell>
        <mxCell id="ujE0xhHbQEDL6SDgRYvv-120" value="" style="rhombus;whiteSpace=wrap;html=1;" vertex="1" parent="2">
          <mxGeometry x="108" y="1801" width="60" height="41" as="geometry" />
        </mxCell>
        <mxCell id="ujE0xhHbQEDL6SDgRYvv-126" value="お届け先情報が登録済み&lt;div&gt;である場合&lt;/div&gt;" style="text;html=1;align=center;verticalAlign=middle;resizable=0;points=[];autosize=1;strokeColor=none;fillColor=none;" vertex="1" parent="2">
          <mxGeometry x="-11.5" y="1781" width="160" height="40" as="geometry" />
        </mxCell>
        <mxCell id="JrYKbtGQ8v13GvmCwRtV-3" value="&lt;span style=&quot;font-size: 11px;&quot;&gt;購入確認ボタンを&lt;/span&gt;&lt;div&gt;&lt;span style=&quot;font-size: 11px;&quot;&gt;押下&lt;/span&gt;&lt;/div&gt;" style="rounded=1;whiteSpace=wrap;html=1;arcSize=40;" vertex="1" parent="2">
          <mxGeometry x="78" y="2761" width="120" height="40" as="geometry" />
        </mxCell>
        <mxCell id="JrYKbtGQ8v13GvmCwRtV-29" value="&lt;font style=&quot;font-size: 12px;&quot;&gt;購入ボタンを押下&lt;/font&gt;" style="rounded=1;whiteSpace=wrap;html=1;arcSize=40;" vertex="1" parent="2">
          <mxGeometry x="78" y="3201" width="120" height="40" as="geometry" />
        </mxCell>
        <mxCell id="3" value="ECサイト画面" style="swimlane;whiteSpace=wrap;startSize=23;" vertex="1" parent="1">
          <mxGeometry x="441.5" y="39" width="280" height="3521" as="geometry" />
        </mxCell>
        <mxCell id="3yCVu83lC0UBpUjsyana-5" value="&lt;font style=&quot;font-size: 12px;&quot;&gt;購入画面を表示&lt;/font&gt;" style="rounded=1;whiteSpace=wrap;html=1;arcSize=40;" vertex="1" parent="3">
          <mxGeometry x="79" y="841" width="120" height="40" as="geometry" />
        </mxCell>
        <mxCell id="3yCVu83lC0UBpUjsyana-82" value="支払い情報登録画面を表示" style="rounded=1;whiteSpace=wrap;html=1;arcSize=40;" vertex="1" parent="3">
          <mxGeometry x="80" y="1001" width="120" height="40" as="geometry" />
        </mxCell>
        <mxCell id="ujE0xhHbQEDL6SDgRYvv-82" value="&lt;font style=&quot;font-size: 12px;&quot;&gt;購入画面を表示&lt;/font&gt;" style="rounded=1;whiteSpace=wrap;html=1;arcSize=40;" vertex="1" parent="3">
          <mxGeometry x="78" y="1721" width="120" height="40" as="geometry" />
        </mxCell>
        <mxCell id="ujE0xhHbQEDL6SDgRYvv-88" value="&lt;font style=&quot;font-size: 11px;&quot;&gt;入力値の&lt;/font&gt;&lt;div style=&quot;font-size: 11px;&quot;&gt;&lt;font style=&quot;font-size: 11px;&quot;&gt;バリデーション&lt;/font&gt;&lt;/div&gt;" style="rounded=1;whiteSpace=wrap;html=1;arcSize=40;" vertex="1" parent="3">
          <mxGeometry x="78" y="1160" width="120" height="40" as="geometry" />
        </mxCell>
        <mxCell id="ujE0xhHbQEDL6SDgRYvv-110" value="適正な値でない場合" style="text;html=1;align=center;verticalAlign=middle;whiteSpace=wrap;rounded=0;" vertex="1" parent="3">
          <mxGeometry x="8.499999999999886" y="1231" width="110" height="30" as="geometry" />
        </mxCell>
        <mxCell id="ujE0xhHbQEDL6SDgRYvv-95" value="適正な値である場合" style="text;html=1;align=center;verticalAlign=middle;whiteSpace=wrap;rounded=0;" vertex="1" parent="3">
          <mxGeometry x="148.4999999999999" y="1281" width="110" height="30" as="geometry" />
        </mxCell>
        <mxCell id="ujE0xhHbQEDL6SDgRYvv-91" value="&lt;font style=&quot;font-size: 12px;&quot;&gt;エラー内容を表示&lt;/font&gt;" style="rounded=1;whiteSpace=wrap;html=1;arcSize=40;" vertex="1" parent="3">
          <mxGeometry x="78" y="1481" width="120" height="40" as="geometry" />
        </mxCell>
        <mxCell id="ujE0xhHbQEDL6SDgRYvv-180" value="&lt;span style=&quot;font-size: 11px;&quot;&gt;購入完了画面を表示&lt;/span&gt;" style="rounded=1;whiteSpace=wrap;html=1;arcSize=40;" vertex="1" parent="3">
          <mxGeometry x="78" y="3361" width="120" height="40" as="geometry" />
        </mxCell>
        <mxCell id="JrYKbtGQ8v13GvmCwRtV-9" style="edgeStyle=orthogonalEdgeStyle;rounded=0;orthogonalLoop=1;jettySize=auto;html=1;entryX=0.5;entryY=0;entryDx=0;entryDy=0;" edge="1" parent="3" source="JrYKbtGQ8v13GvmCwRtV-5" target="JrYKbtGQ8v13GvmCwRtV-6">
          <mxGeometry relative="1" as="geometry" />
        </mxCell>
        <mxCell id="JrYKbtGQ8v13GvmCwRtV-5" value="&lt;font style=&quot;font-size: 11px;&quot;&gt;購入情報の&lt;/font&gt;&lt;div style=&quot;font-size: 11px;&quot;&gt;&lt;font style=&quot;font-size: 11px;&quot;&gt;バリデーション&lt;/font&gt;&lt;/div&gt;" style="rounded=1;whiteSpace=wrap;html=1;arcSize=40;" vertex="1" parent="3">
          <mxGeometry x="78" y="2761" width="120" height="40" as="geometry" />
        </mxCell>
        <mxCell id="JrYKbtGQ8v13GvmCwRtV-10" style="edgeStyle=orthogonalEdgeStyle;rounded=0;orthogonalLoop=1;jettySize=auto;html=1;entryX=0.5;entryY=0;entryDx=0;entryDy=0;" edge="1" parent="3" source="JrYKbtGQ8v13GvmCwRtV-6" target="JrYKbtGQ8v13GvmCwRtV-8">
          <mxGeometry relative="1" as="geometry" />
        </mxCell>
        <mxCell id="JrYKbtGQ8v13GvmCwRtV-11" style="edgeStyle=orthogonalEdgeStyle;rounded=0;orthogonalLoop=1;jettySize=auto;html=1;entryX=0.5;entryY=0;entryDx=0;entryDy=0;exitX=0;exitY=0.5;exitDx=0;exitDy=0;" edge="1" parent="3" source="JrYKbtGQ8v13GvmCwRtV-6" target="JrYKbtGQ8v13GvmCwRtV-7">
          <mxGeometry relative="1" as="geometry">
            <Array as="points">
              <mxPoint x="39" y="2861" />
              <mxPoint x="39" y="3001" />
              <mxPoint x="138" y="3001" />
            </Array>
          </mxGeometry>
        </mxCell>
        <mxCell id="JrYKbtGQ8v13GvmCwRtV-6" value="" style="rhombus;whiteSpace=wrap;html=1;" vertex="1" parent="3">
          <mxGeometry x="109.12000000000012" y="2841" width="57.76" height="39" as="geometry" />
        </mxCell>
        <mxCell id="JrYKbtGQ8v13GvmCwRtV-7" value="&lt;font style=&quot;font-size: 12px;&quot;&gt;エラー内容を表示&lt;/font&gt;" style="rounded=1;whiteSpace=wrap;html=1;arcSize=40;" vertex="1" parent="3">
          <mxGeometry x="78" y="3041" width="120" height="40" as="geometry" />
        </mxCell>
        <mxCell id="JrYKbtGQ8v13GvmCwRtV-8" value="&lt;div&gt;&lt;span style=&quot;background-color: initial;&quot;&gt;購入&lt;/span&gt;&lt;/div&gt;&lt;span style=&quot;background-color: initial;&quot;&gt;APIリクエストを送信&lt;/span&gt;" style="rounded=1;whiteSpace=wrap;html=1;arcSize=40;" vertex="1" parent="3">
          <mxGeometry x="78" y="2921" width="120" height="40" as="geometry" />
        </mxCell>
        <mxCell id="JrYKbtGQ8v13GvmCwRtV-12" value="適正な値である場合" style="text;html=1;align=center;verticalAlign=middle;whiteSpace=wrap;rounded=0;" vertex="1" parent="3">
          <mxGeometry x="148.4999999999999" y="2880" width="110" height="30" as="geometry" />
        </mxCell>
        <mxCell id="JrYKbtGQ8v13GvmCwRtV-13" value="不正な値である場合" style="text;html=1;align=center;verticalAlign=middle;whiteSpace=wrap;rounded=0;" vertex="1" parent="3">
          <mxGeometry x="8.5" y="2831" width="110" height="30" as="geometry" />
        </mxCell>
        <mxCell id="JrYKbtGQ8v13GvmCwRtV-27" value="&lt;font style=&quot;font-size: 12px;&quot;&gt;購入確認画面を表示&lt;/font&gt;" style="rounded=1;whiteSpace=wrap;html=1;arcSize=40;" vertex="1" parent="3">
          <mxGeometry x="78" y="3201" width="120" height="40" as="geometry" />
        </mxCell>
        <mxCell id="JrYKbtGQ8v13GvmCwRtV-32" value="&lt;div&gt;&lt;span style=&quot;background-color: initial;&quot;&gt;購入&lt;/span&gt;&lt;/div&gt;&lt;span style=&quot;background-color: initial;&quot;&gt;APIリクエストを送信&lt;/span&gt;" style="rounded=1;whiteSpace=wrap;html=1;arcSize=40;" vertex="1" parent="3">
          <mxGeometry x="78" y="3281" width="120" height="40" as="geometry" />
        </mxCell>
        <mxCell id="3yCVu83lC0UBpUjsyana-83" style="edgeStyle=orthogonalEdgeStyle;rounded=0;orthogonalLoop=1;jettySize=auto;html=1;entryX=0;entryY=0.5;entryDx=0;entryDy=0;" edge="1" parent="1" source="3yCVu83lC0UBpUjsyana-79" target="3yCVu83lC0UBpUjsyana-82">
          <mxGeometry relative="1" as="geometry" />
        </mxCell>
        <mxCell id="3yCVu83lC0UBpUjsyana-85" style="edgeStyle=orthogonalEdgeStyle;rounded=0;orthogonalLoop=1;jettySize=auto;html=1;entryX=1;entryY=0.5;entryDx=0;entryDy=0;" edge="1" parent="1" source="3yCVu83lC0UBpUjsyana-82" target="3yCVu83lC0UBpUjsyana-84">
          <mxGeometry relative="1" as="geometry">
            <Array as="points">
              <mxPoint x="582" y="1140" />
            </Array>
          </mxGeometry>
        </mxCell>
        <mxCell id="ujE0xhHbQEDL6SDgRYvv-5" value="APIサーバー" style="swimlane;whiteSpace=wrap;startSize=23;" vertex="1" parent="1">
          <mxGeometry x="721.5" y="39" width="280" height="3521" as="geometry" />
        </mxCell>
        <mxCell id="ujE0xhHbQEDL6SDgRYvv-75" value="&lt;span style=&quot;background-color: rgb(255, 255, 255); font-size: 11px;&quot;&gt;登録完了のレスポンス&lt;/span&gt;&lt;div style=&quot;background-color: rgb(255, 255, 255);&quot;&gt;&lt;span style=&quot;font-size: 11px;&quot;&gt;を返却&lt;/span&gt;&lt;/div&gt;" style="rounded=1;whiteSpace=wrap;html=1;arcSize=40;" vertex="1" parent="ujE0xhHbQEDL6SDgRYvv-5">
          <mxGeometry x="78" y="1721" width="120" height="40" as="geometry" />
        </mxCell>
        <mxCell id="ujE0xhHbQEDL6SDgRYvv-171" value="購入履歴情報&lt;span style=&quot;font-size: 11px;&quot;&gt;を登録&lt;/span&gt;" style="rounded=1;whiteSpace=wrap;html=1;arcSize=40;" vertex="1" parent="ujE0xhHbQEDL6SDgRYvv-5">
          <mxGeometry x="77.52999999999997" y="3281" width="120" height="40" as="geometry" />
        </mxCell>
        <mxCell id="JrYKbtGQ8v13GvmCwRtV-17" style="edgeStyle=orthogonalEdgeStyle;rounded=0;orthogonalLoop=1;jettySize=auto;html=1;entryX=0.5;entryY=0;entryDx=0;entryDy=0;" edge="1" parent="ujE0xhHbQEDL6SDgRYvv-5" source="JrYKbtGQ8v13GvmCwRtV-14" target="JrYKbtGQ8v13GvmCwRtV-16">
          <mxGeometry relative="1" as="geometry" />
        </mxCell>
        <mxCell id="JrYKbtGQ8v13GvmCwRtV-14" value="&lt;font style=&quot;font-size: 11px;&quot;&gt;購入情報の&lt;/font&gt;&lt;div style=&quot;font-size: 11px;&quot;&gt;&lt;font style=&quot;font-size: 11px;&quot;&gt;バリデーション&lt;/font&gt;&lt;/div&gt;" style="rounded=1;whiteSpace=wrap;html=1;arcSize=40;" vertex="1" parent="ujE0xhHbQEDL6SDgRYvv-5">
          <mxGeometry x="78" y="2921" width="120" height="40" as="geometry" />
        </mxCell>
        <mxCell id="JrYKbtGQ8v13GvmCwRtV-21" style="edgeStyle=orthogonalEdgeStyle;rounded=0;orthogonalLoop=1;jettySize=auto;html=1;entryX=0.5;entryY=0;entryDx=0;entryDy=0;" edge="1" parent="ujE0xhHbQEDL6SDgRYvv-5" source="JrYKbtGQ8v13GvmCwRtV-16" target="JrYKbtGQ8v13GvmCwRtV-19">
          <mxGeometry relative="1" as="geometry" />
        </mxCell>
        <mxCell id="JrYKbtGQ8v13GvmCwRtV-24" style="edgeStyle=orthogonalEdgeStyle;rounded=0;orthogonalLoop=1;jettySize=auto;html=1;entryX=1;entryY=0.5;entryDx=0;entryDy=0;" edge="1" parent="ujE0xhHbQEDL6SDgRYvv-5" source="JrYKbtGQ8v13GvmCwRtV-16" target="JrYKbtGQ8v13GvmCwRtV-23">
          <mxGeometry relative="1" as="geometry">
            <Array as="points">
              <mxPoint x="219" y="3020" />
              <mxPoint x="219" y="3221" />
            </Array>
          </mxGeometry>
        </mxCell>
        <mxCell id="JrYKbtGQ8v13GvmCwRtV-16" value="" style="rhombus;whiteSpace=wrap;html=1;" vertex="1" parent="ujE0xhHbQEDL6SDgRYvv-5">
          <mxGeometry x="109.12000000000012" y="3001" width="57.76" height="39" as="geometry" />
        </mxCell>
        <mxCell id="JrYKbtGQ8v13GvmCwRtV-19" value="&lt;font style=&quot;font-size: 12px;&quot;&gt;エラーを返却&lt;/font&gt;" style="rounded=1;whiteSpace=wrap;html=1;arcSize=40;" vertex="1" parent="ujE0xhHbQEDL6SDgRYvv-5">
          <mxGeometry x="78" y="3121" width="120" height="40" as="geometry" />
        </mxCell>
        <mxCell id="JrYKbtGQ8v13GvmCwRtV-23" value="&lt;font style=&quot;font-size: 12px;&quot;&gt;バリデーション結果を返却&lt;/font&gt;" style="rounded=1;whiteSpace=wrap;html=1;arcSize=40;" vertex="1" parent="ujE0xhHbQEDL6SDgRYvv-5">
          <mxGeometry x="78.52999999999997" y="3201" width="120" height="40" as="geometry" />
        </mxCell>
        <mxCell id="JrYKbtGQ8v13GvmCwRtV-25" value="適正な値である場合" style="text;html=1;align=center;verticalAlign=middle;whiteSpace=wrap;rounded=0;" vertex="1" parent="ujE0xhHbQEDL6SDgRYvv-5">
          <mxGeometry x="166.87999999999988" y="2991" width="110" height="30" as="geometry" />
        </mxCell>
        <mxCell id="JrYKbtGQ8v13GvmCwRtV-26" value="不正な値である場合" style="text;html=1;align=center;verticalAlign=middle;whiteSpace=wrap;rounded=0;" vertex="1" parent="ujE0xhHbQEDL6SDgRYvv-5">
          <mxGeometry x="18.5" y="3040" width="110" height="30" as="geometry" />
        </mxCell>
        <mxCell id="ujE0xhHbQEDL6SDgRYvv-16" value="データベース" style="swimlane;whiteSpace=wrap;startSize=23;" vertex="1" parent="1">
          <mxGeometry x="1001.5" y="39" width="280" height="3521" as="geometry" />
        </mxCell>
        <mxCell id="ujE0xhHbQEDL6SDgRYvv-74" value="&lt;span style=&quot;background-color: rgb(255, 255, 255); font-size: 11px;&quot;&gt;登録完了のレスポンス&lt;/span&gt;&lt;div style=&quot;background-color: rgb(255, 255, 255);&quot;&gt;&lt;span style=&quot;font-size: 11px;&quot;&gt;を返却&lt;/span&gt;&lt;/div&gt;" style="rounded=1;whiteSpace=wrap;html=1;arcSize=40;" vertex="1" parent="ujE0xhHbQEDL6SDgRYvv-16">
          <mxGeometry x="78" y="1721" width="120" height="40" as="geometry" />
        </mxCell>
        <mxCell id="JrYKbtGQ8v13GvmCwRtV-59" style="edgeStyle=orthogonalEdgeStyle;rounded=0;orthogonalLoop=1;jettySize=auto;html=1;entryX=0.5;entryY=0;entryDx=0;entryDy=0;" edge="1" parent="ujE0xhHbQEDL6SDgRYvv-16" source="ujE0xhHbQEDL6SDgRYvv-172" target="ujE0xhHbQEDL6SDgRYvv-175">
          <mxGeometry relative="1" as="geometry" />
        </mxCell>
        <mxCell id="ujE0xhHbQEDL6SDgRYvv-172" value="購入履歴情報&lt;span style=&quot;font-size: 11px;&quot;&gt;を登録&lt;/span&gt;" style="rounded=1;whiteSpace=wrap;html=1;arcSize=40;" vertex="1" parent="ujE0xhHbQEDL6SDgRYvv-16">
          <mxGeometry x="78" y="3281" width="120" height="40" as="geometry" />
        </mxCell>
        <mxCell id="ujE0xhHbQEDL6SDgRYvv-174" value="&lt;span style=&quot;background-color: rgb(255, 255, 255); font-size: 11px;&quot;&gt;登録完了のレスポンス&lt;/span&gt;&lt;div style=&quot;background-color: rgb(255, 255, 255);&quot;&gt;&lt;span style=&quot;font-size: 11px;&quot;&gt;を返却&lt;/span&gt;&lt;/div&gt;" style="rounded=1;whiteSpace=wrap;html=1;arcSize=40;" vertex="1" parent="ujE0xhHbQEDL6SDgRYvv-16">
          <mxGeometry x="-202" y="3361" width="120" height="40" as="geometry" />
        </mxCell>
        <mxCell id="ujE0xhHbQEDL6SDgRYvv-175" value="&lt;span style=&quot;background-color: rgb(255, 255, 255); font-size: 11px;&quot;&gt;登録完了のレスポンス&lt;/span&gt;&lt;div style=&quot;background-color: rgb(255, 255, 255);&quot;&gt;&lt;span style=&quot;font-size: 11px;&quot;&gt;を返却&lt;/span&gt;&lt;/div&gt;" style="rounded=1;whiteSpace=wrap;html=1;arcSize=40;" vertex="1" parent="ujE0xhHbQEDL6SDgRYvv-16">
          <mxGeometry x="78" y="3361" width="120" height="40" as="geometry" />
        </mxCell>
        <mxCell id="ujE0xhHbQEDL6SDgRYvv-176" style="edgeStyle=orthogonalEdgeStyle;rounded=0;orthogonalLoop=1;jettySize=auto;html=1;entryX=1;entryY=0.5;entryDx=0;entryDy=0;" edge="1" parent="ujE0xhHbQEDL6SDgRYvv-16" source="ujE0xhHbQEDL6SDgRYvv-175" target="ujE0xhHbQEDL6SDgRYvv-174">
          <mxGeometry relative="1" as="geometry" />
        </mxCell>
        <mxCell id="ujE0xhHbQEDL6SDgRYvv-21" style="edgeStyle=orthogonalEdgeStyle;rounded=0;orthogonalLoop=1;jettySize=auto;html=1;entryX=0.5;entryY=0;entryDx=0;entryDy=0;" edge="1" parent="1" source="ujE0xhHbQEDL6SDgRYvv-22" target="ujE0xhHbQEDL6SDgRYvv-23">
          <mxGeometry relative="1" as="geometry" />
        </mxCell>
        <mxCell id="ujE0xhHbQEDL6SDgRYvv-22" value="" style="ellipse;shape=startState;fillColor=#000000;strokeColor=none;" vertex="1" parent="1">
          <mxGeometry x="285" y="85" width="30" height="30" as="geometry" />
        </mxCell>
        <mxCell id="ujE0xhHbQEDL6SDgRYvv-23" value="&lt;span style=&quot;font-size: 11px;&quot;&gt;カート画面にアクセス&lt;/span&gt;" style="rounded=1;whiteSpace=wrap;html=1;arcSize=40;" vertex="1" parent="1">
          <mxGeometry x="240" y="160" width="120" height="40" as="geometry" />
        </mxCell>
        <mxCell id="ujE0xhHbQEDL6SDgRYvv-62" style="edgeStyle=orthogonalEdgeStyle;rounded=0;orthogonalLoop=1;jettySize=auto;html=1;entryX=0.5;entryY=0;entryDx=0;entryDy=0;" edge="1" parent="1" source="ujE0xhHbQEDL6SDgRYvv-24" target="WvElCNo4vnSuFBghOQTC-68">
          <mxGeometry relative="1" as="geometry" />
        </mxCell>
        <mxCell id="ujE0xhHbQEDL6SDgRYvv-24" value="&lt;span style=&quot;font-size: 11px;&quot;&gt;画面の表示を確認&lt;/span&gt;" style="rounded=1;whiteSpace=wrap;html=1;arcSize=40;" vertex="1" parent="1">
          <mxGeometry x="240" y="800" width="120" height="40" as="geometry" />
        </mxCell>
        <mxCell id="ujE0xhHbQEDL6SDgRYvv-25" value="&lt;font style=&quot;font-size: 10px;&quot;&gt;カートに入っている商品の情報を取得するAPIを&lt;/font&gt;&lt;div&gt;&lt;font style=&quot;font-size: 10px;&quot;&gt;リクエスト&lt;/font&gt;&lt;/div&gt;" style="rounded=1;whiteSpace=wrap;html=1;arcSize=40;" vertex="1" parent="1">
          <mxGeometry x="520.5" y="160" width="120" height="40" as="geometry" />
        </mxCell>
        <mxCell id="ujE0xhHbQEDL6SDgRYvv-26" style="edgeStyle=orthogonalEdgeStyle;rounded=0;orthogonalLoop=1;jettySize=auto;html=1;entryX=0.5;entryY=0;entryDx=0;entryDy=0;" edge="1" parent="1" source="ujE0xhHbQEDL6SDgRYvv-27" target="ujE0xhHbQEDL6SDgRYvv-28">
          <mxGeometry relative="1" as="geometry" />
        </mxCell>
        <mxCell id="ujE0xhHbQEDL6SDgRYvv-27" value="&lt;span style=&quot;font-size: 10px;&quot;&gt;カート情報を変更・削除した&lt;/span&gt;&lt;span style=&quot;font-size: 10px; background-color: initial;&quot;&gt;メッセージを表示&lt;/span&gt;" style="rounded=1;whiteSpace=wrap;html=1;arcSize=40;" vertex="1" parent="1">
          <mxGeometry x="520.5" y="720" width="120" height="40" as="geometry" />
        </mxCell>
        <mxCell id="ujE0xhHbQEDL6SDgRYvv-28" value="&lt;span style=&quot;font-size: 10px;&quot;&gt;カート画面の表示を更新&lt;/span&gt;" style="rounded=1;whiteSpace=wrap;html=1;arcSize=40;" vertex="1" parent="1">
          <mxGeometry x="520.5" y="800" width="120" height="40" as="geometry" />
        </mxCell>
        <mxCell id="ujE0xhHbQEDL6SDgRYvv-29" style="edgeStyle=orthogonalEdgeStyle;rounded=0;orthogonalLoop=1;jettySize=auto;html=1;entryX=0.5;entryY=0;entryDx=0;entryDy=0;" edge="1" parent="1" source="ujE0xhHbQEDL6SDgRYvv-30" target="ujE0xhHbQEDL6SDgRYvv-27">
          <mxGeometry relative="1" as="geometry" />
        </mxCell>
        <mxCell id="ujE0xhHbQEDL6SDgRYvv-30" value="" style="rhombus;whiteSpace=wrap;html=1;" vertex="1" parent="1">
          <mxGeometry x="551" y="640" width="59" height="40" as="geometry" />
        </mxCell>
        <mxCell id="ujE0xhHbQEDL6SDgRYvv-31" value="カート情報が&lt;div&gt;更新された場合&lt;/div&gt;" style="text;html=1;align=center;verticalAlign=middle;whiteSpace=wrap;rounded=0;" vertex="1" parent="1">
          <mxGeometry x="580" y="680" width="110" height="30" as="geometry" />
        </mxCell>
        <mxCell id="ujE0xhHbQEDL6SDgRYvv-32" value="カート情報が&lt;div&gt;更新されていない場合&lt;/div&gt;" style="text;html=1;align=center;verticalAlign=middle;whiteSpace=wrap;rounded=0;" vertex="1" parent="1">
          <mxGeometry x="441.5" y="620" width="130.5" height="30" as="geometry" />
        </mxCell>
        <mxCell id="ujE0xhHbQEDL6SDgRYvv-33" value="&lt;span style=&quot;font-size: 10px;&quot;&gt;商品情報を取得&lt;/span&gt;" style="rounded=1;whiteSpace=wrap;html=1;arcSize=40;" vertex="1" parent="1">
          <mxGeometry x="800.5" y="160" width="120" height="40" as="geometry" />
        </mxCell>
        <mxCell id="ujE0xhHbQEDL6SDgRYvv-34" value="&lt;span style=&quot;font-size: 10px;&quot;&gt;在庫が無い商品を&lt;/span&gt;&lt;div&gt;&lt;span style=&quot;font-size: 10px;&quot;&gt;カートから削除&lt;/span&gt;&lt;/div&gt;" style="rounded=1;whiteSpace=wrap;html=1;arcSize=40;" vertex="1" parent="1">
          <mxGeometry x="799.5" y="240" width="120" height="40" as="geometry" />
        </mxCell>
        <mxCell id="ujE0xhHbQEDL6SDgRYvv-35" style="edgeStyle=orthogonalEdgeStyle;rounded=0;orthogonalLoop=1;jettySize=auto;html=1;entryX=0.5;entryY=0;entryDx=0;entryDy=0;" edge="1" parent="1" source="ujE0xhHbQEDL6SDgRYvv-37" target="ujE0xhHbQEDL6SDgRYvv-39">
          <mxGeometry relative="1" as="geometry" />
        </mxCell>
        <mxCell id="ujE0xhHbQEDL6SDgRYvv-36" style="edgeStyle=orthogonalEdgeStyle;rounded=0;orthogonalLoop=1;jettySize=auto;html=1;entryX=0;entryY=0.5;entryDx=0;entryDy=0;" edge="1" parent="1" source="ujE0xhHbQEDL6SDgRYvv-37" target="ujE0xhHbQEDL6SDgRYvv-40">
          <mxGeometry relative="1" as="geometry">
            <Array as="points">
              <mxPoint x="760.5" y="420" />
              <mxPoint x="760.5" y="580" />
            </Array>
          </mxGeometry>
        </mxCell>
        <mxCell id="ujE0xhHbQEDL6SDgRYvv-37" value="" style="rhombus;whiteSpace=wrap;html=1;" vertex="1" parent="1">
          <mxGeometry x="830" y="400" width="59" height="40" as="geometry" />
        </mxCell>
        <mxCell id="ujE0xhHbQEDL6SDgRYvv-38" value="カート登録数&amp;nbsp;&lt;span style=&quot;background-color: initial;&quot;&gt;&amp;gt; 在庫数&lt;/span&gt;&lt;div&gt;&lt;span style=&quot;background-color: initial;&quot;&gt;&lt;i&gt;となる商品がある場合&lt;/i&gt;&lt;/span&gt;&lt;/div&gt;" style="text;html=1;align=center;verticalAlign=middle;whiteSpace=wrap;rounded=0;" vertex="1" parent="1">
          <mxGeometry x="873" y="440" width="128.5" height="30" as="geometry" />
        </mxCell>
        <mxCell id="ujE0xhHbQEDL6SDgRYvv-39" value="&lt;span style=&quot;font-size: 10px;&quot;&gt;カート登録数を在庫の&lt;/span&gt;&lt;div&gt;&lt;span style=&quot;font-size: 10px;&quot;&gt;最大数に更新&lt;/span&gt;&lt;/div&gt;" style="rounded=1;whiteSpace=wrap;html=1;arcSize=40;" vertex="1" parent="1">
          <mxGeometry x="799.5" y="480" width="120" height="40" as="geometry" />
        </mxCell>
        <mxCell id="ujE0xhHbQEDL6SDgRYvv-40" value="&lt;span style=&quot;font-size: 11px;&quot;&gt;商品情報を返却&lt;/span&gt;" style="rounded=1;whiteSpace=wrap;html=1;arcSize=40;" vertex="1" parent="1">
          <mxGeometry x="799.5" y="560" width="120" height="40" as="geometry" />
        </mxCell>
        <mxCell id="ujE0xhHbQEDL6SDgRYvv-41" value="カート登録数&amp;nbsp;&lt;span style=&quot;background-color: initial;&quot;&gt;&amp;gt; 在庫数&lt;/span&gt;&lt;div&gt;&lt;span style=&quot;background-color: initial;&quot;&gt;&lt;i&gt;となる商品がない場合&lt;/i&gt;&lt;/span&gt;&lt;/div&gt;" style="text;html=1;align=center;verticalAlign=middle;whiteSpace=wrap;rounded=0;" vertex="1" parent="1">
          <mxGeometry x="721.5" y="380" width="128.5" height="30" as="geometry" />
        </mxCell>
        <mxCell id="ujE0xhHbQEDL6SDgRYvv-42" style="edgeStyle=orthogonalEdgeStyle;rounded=0;orthogonalLoop=1;jettySize=auto;html=1;entryX=0.5;entryY=0;entryDx=0;entryDy=0;" edge="1" parent="1" source="ujE0xhHbQEDL6SDgRYvv-43" target="ujE0xhHbQEDL6SDgRYvv-44">
          <mxGeometry relative="1" as="geometry" />
        </mxCell>
        <mxCell id="ujE0xhHbQEDL6SDgRYvv-43" value="&lt;span style=&quot;font-size: 10px;&quot;&gt;商品情報を検索&lt;/span&gt;" style="rounded=1;whiteSpace=wrap;html=1;arcSize=40;" vertex="1" parent="1">
          <mxGeometry x="1080.5" y="160" width="120" height="40" as="geometry" />
        </mxCell>
        <mxCell id="ujE0xhHbQEDL6SDgRYvv-44" value="&lt;span style=&quot;font-size: 10px;&quot;&gt;商品情報を返却&lt;/span&gt;" style="rounded=1;whiteSpace=wrap;html=1;arcSize=40;" vertex="1" parent="1">
          <mxGeometry x="1080.5" y="240" width="120" height="40" as="geometry" />
        </mxCell>
        <mxCell id="ujE0xhHbQEDL6SDgRYvv-45" style="edgeStyle=orthogonalEdgeStyle;rounded=0;orthogonalLoop=1;jettySize=auto;html=1;entryX=0.5;entryY=0;entryDx=0;entryDy=0;" edge="1" parent="1" source="ujE0xhHbQEDL6SDgRYvv-46" target="ujE0xhHbQEDL6SDgRYvv-47">
          <mxGeometry relative="1" as="geometry" />
        </mxCell>
        <mxCell id="ujE0xhHbQEDL6SDgRYvv-46" value="&lt;span style=&quot;font-size: 10px;&quot;&gt;カート情報を更新&lt;/span&gt;" style="rounded=1;whiteSpace=wrap;html=1;arcSize=40;" vertex="1" parent="1">
          <mxGeometry x="1080.5" y="320" width="120" height="40" as="geometry" />
        </mxCell>
        <mxCell id="ujE0xhHbQEDL6SDgRYvv-47" value="&lt;span style=&quot;font-size: 11px;&quot;&gt;更新完了のレスポンス&lt;/span&gt;&lt;div&gt;&lt;span style=&quot;font-size: 11px;&quot;&gt;を返却&lt;/span&gt;&lt;/div&gt;" style="rounded=1;whiteSpace=wrap;html=1;arcSize=40;" vertex="1" parent="1">
          <mxGeometry x="1080.5" y="400" width="120" height="40" as="geometry" />
        </mxCell>
        <mxCell id="ujE0xhHbQEDL6SDgRYvv-48" style="edgeStyle=orthogonalEdgeStyle;rounded=0;orthogonalLoop=1;jettySize=auto;html=1;entryX=0.5;entryY=0;entryDx=0;entryDy=0;" edge="1" parent="1" source="ujE0xhHbQEDL6SDgRYvv-49" target="ujE0xhHbQEDL6SDgRYvv-50">
          <mxGeometry relative="1" as="geometry" />
        </mxCell>
        <mxCell id="ujE0xhHbQEDL6SDgRYvv-49" value="&lt;font style=&quot;font-size: 12px;&quot;&gt;カート情報を更新&lt;/font&gt;" style="rounded=1;whiteSpace=wrap;html=1;arcSize=40;" vertex="1" parent="1">
          <mxGeometry x="1080.5" y="480" width="120" height="40" as="geometry" />
        </mxCell>
        <mxCell id="ujE0xhHbQEDL6SDgRYvv-50" value="&lt;span style=&quot;font-size: 11px;&quot;&gt;更新完了のレスポンス&lt;/span&gt;&lt;div&gt;&lt;span style=&quot;font-size: 11px;&quot;&gt;を返却&lt;/span&gt;&lt;/div&gt;" style="rounded=1;whiteSpace=wrap;html=1;arcSize=40;" vertex="1" parent="1">
          <mxGeometry x="1080.5" y="560" width="120" height="40" as="geometry" />
        </mxCell>
        <mxCell id="ujE0xhHbQEDL6SDgRYvv-51" style="edgeStyle=orthogonalEdgeStyle;rounded=0;orthogonalLoop=1;jettySize=auto;html=1;entryX=0;entryY=0.5;entryDx=0;entryDy=0;" edge="1" parent="1" source="ujE0xhHbQEDL6SDgRYvv-23" target="ujE0xhHbQEDL6SDgRYvv-25">
          <mxGeometry relative="1" as="geometry" />
        </mxCell>
        <mxCell id="ujE0xhHbQEDL6SDgRYvv-52" style="edgeStyle=orthogonalEdgeStyle;rounded=0;orthogonalLoop=1;jettySize=auto;html=1;entryX=0;entryY=0.5;entryDx=0;entryDy=0;" edge="1" parent="1" source="ujE0xhHbQEDL6SDgRYvv-25" target="ujE0xhHbQEDL6SDgRYvv-33">
          <mxGeometry relative="1" as="geometry" />
        </mxCell>
        <mxCell id="ujE0xhHbQEDL6SDgRYvv-53" style="edgeStyle=orthogonalEdgeStyle;rounded=0;orthogonalLoop=1;jettySize=auto;html=1;entryX=0;entryY=0.5;entryDx=0;entryDy=0;" edge="1" parent="1" source="ujE0xhHbQEDL6SDgRYvv-33" target="ujE0xhHbQEDL6SDgRYvv-43">
          <mxGeometry relative="1" as="geometry" />
        </mxCell>
        <mxCell id="ujE0xhHbQEDL6SDgRYvv-54" style="edgeStyle=orthogonalEdgeStyle;rounded=0;orthogonalLoop=1;jettySize=auto;html=1;entryX=1;entryY=0.5;entryDx=0;entryDy=0;" edge="1" parent="1" source="ujE0xhHbQEDL6SDgRYvv-44">
          <mxGeometry relative="1" as="geometry">
            <mxPoint x="920.5" y="260" as="targetPoint" />
          </mxGeometry>
        </mxCell>
        <mxCell id="ujE0xhHbQEDL6SDgRYvv-55" style="edgeStyle=orthogonalEdgeStyle;rounded=0;orthogonalLoop=1;jettySize=auto;html=1;entryX=0;entryY=0.5;entryDx=0;entryDy=0;" edge="1" parent="1" source="ujE0xhHbQEDL6SDgRYvv-34" target="ujE0xhHbQEDL6SDgRYvv-46">
          <mxGeometry relative="1" as="geometry">
            <Array as="points">
              <mxPoint x="860" y="340" />
            </Array>
          </mxGeometry>
        </mxCell>
        <mxCell id="ujE0xhHbQEDL6SDgRYvv-56" style="edgeStyle=orthogonalEdgeStyle;rounded=0;orthogonalLoop=1;jettySize=auto;html=1;entryX=1;entryY=0.5;entryDx=0;entryDy=0;" edge="1" parent="1" source="ujE0xhHbQEDL6SDgRYvv-47" target="ujE0xhHbQEDL6SDgRYvv-37">
          <mxGeometry relative="1" as="geometry" />
        </mxCell>
        <mxCell id="ujE0xhHbQEDL6SDgRYvv-57" style="edgeStyle=orthogonalEdgeStyle;rounded=0;orthogonalLoop=1;jettySize=auto;html=1;entryX=0;entryY=0.5;entryDx=0;entryDy=0;" edge="1" parent="1" source="ujE0xhHbQEDL6SDgRYvv-39" target="ujE0xhHbQEDL6SDgRYvv-49">
          <mxGeometry relative="1" as="geometry" />
        </mxCell>
        <mxCell id="ujE0xhHbQEDL6SDgRYvv-58" style="edgeStyle=orthogonalEdgeStyle;rounded=0;orthogonalLoop=1;jettySize=auto;html=1;entryX=1;entryY=0.5;entryDx=0;entryDy=0;" edge="1" parent="1" source="ujE0xhHbQEDL6SDgRYvv-50" target="ujE0xhHbQEDL6SDgRYvv-40">
          <mxGeometry relative="1" as="geometry" />
        </mxCell>
        <mxCell id="ujE0xhHbQEDL6SDgRYvv-59" style="edgeStyle=orthogonalEdgeStyle;rounded=0;orthogonalLoop=1;jettySize=auto;html=1;entryX=1;entryY=0.5;entryDx=0;entryDy=0;" edge="1" parent="1" source="ujE0xhHbQEDL6SDgRYvv-28" target="ujE0xhHbQEDL6SDgRYvv-24">
          <mxGeometry relative="1" as="geometry" />
        </mxCell>
        <mxCell id="ujE0xhHbQEDL6SDgRYvv-60" style="edgeStyle=orthogonalEdgeStyle;rounded=0;orthogonalLoop=1;jettySize=auto;html=1;entryX=0.5;entryY=0;entryDx=0;entryDy=0;" edge="1" parent="1" source="ujE0xhHbQEDL6SDgRYvv-30" target="ujE0xhHbQEDL6SDgRYvv-24">
          <mxGeometry relative="1" as="geometry" />
        </mxCell>
        <mxCell id="ujE0xhHbQEDL6SDgRYvv-61" style="edgeStyle=orthogonalEdgeStyle;rounded=0;orthogonalLoop=1;jettySize=auto;html=1;entryX=1;entryY=0.5;entryDx=0;entryDy=0;" edge="1" parent="1" source="ujE0xhHbQEDL6SDgRYvv-40" target="ujE0xhHbQEDL6SDgRYvv-30">
          <mxGeometry relative="1" as="geometry">
            <Array as="points">
              <mxPoint x="860" y="660" />
            </Array>
          </mxGeometry>
        </mxCell>
        <mxCell id="ujE0xhHbQEDL6SDgRYvv-65" style="edgeStyle=orthogonalEdgeStyle;rounded=0;orthogonalLoop=1;jettySize=auto;html=1;entryX=1;entryY=0.5;entryDx=0;entryDy=0;" edge="1" parent="1" source="3yCVu83lC0UBpUjsyana-5" target="3yCVu83lC0UBpUjsyana-74">
          <mxGeometry relative="1" as="geometry">
            <Array as="points">
              <mxPoint x="580" y="981" />
            </Array>
          </mxGeometry>
        </mxCell>
        <mxCell id="ujE0xhHbQEDL6SDgRYvv-77" style="edgeStyle=orthogonalEdgeStyle;rounded=0;orthogonalLoop=1;jettySize=auto;html=1;entryX=1;entryY=0.5;entryDx=0;entryDy=0;" edge="1" parent="1" source="ujE0xhHbQEDL6SDgRYvv-74" target="ujE0xhHbQEDL6SDgRYvv-75">
          <mxGeometry relative="1" as="geometry" />
        </mxCell>
        <mxCell id="ujE0xhHbQEDL6SDgRYvv-81" style="edgeStyle=orthogonalEdgeStyle;rounded=0;orthogonalLoop=1;jettySize=auto;html=1;entryX=0;entryY=0.5;entryDx=0;entryDy=0;" edge="1" parent="1" source="WvElCNo4vnSuFBghOQTC-68" target="3yCVu83lC0UBpUjsyana-5">
          <mxGeometry relative="1" as="geometry" />
        </mxCell>
        <mxCell id="ujE0xhHbQEDL6SDgRYvv-90" style="edgeStyle=orthogonalEdgeStyle;rounded=0;orthogonalLoop=1;jettySize=auto;html=1;entryX=0;entryY=0.5;entryDx=0;entryDy=0;" edge="1" parent="1" source="ujE0xhHbQEDL6SDgRYvv-66" target="ujE0xhHbQEDL6SDgRYvv-88">
          <mxGeometry relative="1" as="geometry" />
        </mxCell>
        <mxCell id="ujE0xhHbQEDL6SDgRYvv-92" style="edgeStyle=orthogonalEdgeStyle;rounded=0;orthogonalLoop=1;jettySize=auto;html=1;entryX=0.5;entryY=0;entryDx=0;entryDy=0;exitX=0;exitY=0.5;exitDx=0;exitDy=0;" edge="1" parent="1" source="ujE0xhHbQEDL6SDgRYvv-94" target="ujE0xhHbQEDL6SDgRYvv-91">
          <mxGeometry relative="1" as="geometry">
            <Array as="points">
              <mxPoint x="480" y="1300" />
              <mxPoint x="480" y="1440" />
              <mxPoint x="580" y="1440" />
            </Array>
          </mxGeometry>
        </mxCell>
        <mxCell id="ujE0xhHbQEDL6SDgRYvv-93" style="edgeStyle=orthogonalEdgeStyle;rounded=0;orthogonalLoop=1;jettySize=auto;html=1;entryX=0.5;entryY=0;entryDx=0;entryDy=0;" edge="1" parent="1" source="ujE0xhHbQEDL6SDgRYvv-94" target="ujE0xhHbQEDL6SDgRYvv-96">
          <mxGeometry relative="1" as="geometry" />
        </mxCell>
        <mxCell id="ujE0xhHbQEDL6SDgRYvv-94" value="" style="rhombus;whiteSpace=wrap;html=1;" vertex="1" parent="1">
          <mxGeometry x="550.9000000000001" y="1281" width="57.76" height="39" as="geometry" />
        </mxCell>
        <mxCell id="ujE0xhHbQEDL6SDgRYvv-96" value="&lt;font style=&quot;font-size: 12px;&quot;&gt;支払い情報登録　&lt;/font&gt;&lt;div&gt;&lt;font style=&quot;font-size: 12px;&quot;&gt;APIリクエストを送信&lt;/font&gt;&lt;/div&gt;" style="rounded=1;whiteSpace=wrap;html=1;arcSize=40;" vertex="1" parent="1">
          <mxGeometry x="519.78" y="1360" width="120" height="40" as="geometry" />
        </mxCell>
        <mxCell id="ujE0xhHbQEDL6SDgRYvv-97" style="edgeStyle=orthogonalEdgeStyle;rounded=0;orthogonalLoop=1;jettySize=auto;html=1;entryX=0.5;entryY=0;entryDx=0;entryDy=0;" edge="1" parent="1" source="ujE0xhHbQEDL6SDgRYvv-98" target="ujE0xhHbQEDL6SDgRYvv-101">
          <mxGeometry relative="1" as="geometry" />
        </mxCell>
        <mxCell id="ujE0xhHbQEDL6SDgRYvv-98" value="&lt;font style=&quot;font-size: 11px;&quot;&gt;入力値の&lt;/font&gt;&lt;div style=&quot;font-size: 11px;&quot;&gt;&lt;font style=&quot;font-size: 11px;&quot;&gt;バリデーション&lt;/font&gt;&lt;/div&gt;" style="rounded=1;whiteSpace=wrap;html=1;arcSize=40;" vertex="1" parent="1">
          <mxGeometry x="799.03" y="1360" width="120" height="40" as="geometry" />
        </mxCell>
        <mxCell id="ujE0xhHbQEDL6SDgRYvv-99" style="edgeStyle=orthogonalEdgeStyle;rounded=0;orthogonalLoop=1;jettySize=auto;html=1;entryX=0.5;entryY=0;entryDx=0;entryDy=0;" edge="1" parent="1" source="ujE0xhHbQEDL6SDgRYvv-101" target="ujE0xhHbQEDL6SDgRYvv-105">
          <mxGeometry relative="1" as="geometry" />
        </mxCell>
        <mxCell id="ujE0xhHbQEDL6SDgRYvv-100" style="edgeStyle=orthogonalEdgeStyle;rounded=0;orthogonalLoop=1;jettySize=auto;html=1;entryX=1;entryY=0.5;entryDx=0;entryDy=0;" edge="1" parent="1" source="ujE0xhHbQEDL6SDgRYvv-101" target="ujE0xhHbQEDL6SDgRYvv-104">
          <mxGeometry relative="1" as="geometry">
            <Array as="points">
              <mxPoint x="960" y="1460" />
              <mxPoint x="960" y="1620" />
            </Array>
          </mxGeometry>
        </mxCell>
        <mxCell id="ujE0xhHbQEDL6SDgRYvv-101" value="" style="rhombus;whiteSpace=wrap;html=1;" vertex="1" parent="1">
          <mxGeometry x="830.1500000000001" y="1441" width="57.76" height="39" as="geometry" />
        </mxCell>
        <mxCell id="ujE0xhHbQEDL6SDgRYvv-102" value="適正な値である場合" style="text;html=1;align=center;verticalAlign=middle;whiteSpace=wrap;rounded=0;" vertex="1" parent="1">
          <mxGeometry x="887.9099999999999" y="1430" width="110" height="30" as="geometry" />
        </mxCell>
        <mxCell id="ujE0xhHbQEDL6SDgRYvv-103" value="不正な値である場合" style="text;html=1;align=center;verticalAlign=middle;whiteSpace=wrap;rounded=0;" vertex="1" parent="1">
          <mxGeometry x="739.53" y="1479" width="110" height="30" as="geometry" />
        </mxCell>
        <mxCell id="ujE0xhHbQEDL6SDgRYvv-104" value="&lt;span style=&quot;font-size: 11px;&quot;&gt;支払い情報を登録&lt;/span&gt;" style="rounded=1;whiteSpace=wrap;html=1;arcSize=40;" vertex="1" parent="1">
          <mxGeometry x="799.03" y="1600" width="120" height="40" as="geometry" />
        </mxCell>
        <mxCell id="ujE0xhHbQEDL6SDgRYvv-113" style="edgeStyle=orthogonalEdgeStyle;rounded=0;orthogonalLoop=1;jettySize=auto;html=1;entryX=1;entryY=0.5;entryDx=0;entryDy=0;" edge="1" parent="1" source="ujE0xhHbQEDL6SDgRYvv-105" target="ujE0xhHbQEDL6SDgRYvv-91">
          <mxGeometry relative="1" as="geometry" />
        </mxCell>
        <mxCell id="ujE0xhHbQEDL6SDgRYvv-105" value="&lt;span style=&quot;font-size: 11px;&quot;&gt;エラーを返却&lt;/span&gt;" style="rounded=1;whiteSpace=wrap;html=1;arcSize=40;" vertex="1" parent="1">
          <mxGeometry x="799.03" y="1520" width="120" height="40" as="geometry" />
        </mxCell>
        <mxCell id="ujE0xhHbQEDL6SDgRYvv-117" style="edgeStyle=orthogonalEdgeStyle;rounded=0;orthogonalLoop=1;jettySize=auto;html=1;entryX=0.5;entryY=0;entryDx=0;entryDy=0;" edge="1" parent="1" source="ujE0xhHbQEDL6SDgRYvv-106" target="ujE0xhHbQEDL6SDgRYvv-74">
          <mxGeometry relative="1" as="geometry" />
        </mxCell>
        <mxCell id="ujE0xhHbQEDL6SDgRYvv-106" value="&lt;span style=&quot;font-size: 11px;&quot;&gt;支払い情報を登録&lt;/span&gt;" style="rounded=1;whiteSpace=wrap;html=1;arcSize=40;" vertex="1" parent="1">
          <mxGeometry x="1079.53" y="1680" width="120" height="40" as="geometry" />
        </mxCell>
        <mxCell id="ujE0xhHbQEDL6SDgRYvv-108" style="edgeStyle=orthogonalEdgeStyle;rounded=0;orthogonalLoop=1;jettySize=auto;html=1;entryX=0;entryY=0.5;entryDx=0;entryDy=0;" edge="1" parent="1" source="ujE0xhHbQEDL6SDgRYvv-104" target="ujE0xhHbQEDL6SDgRYvv-106">
          <mxGeometry relative="1" as="geometry">
            <Array as="points">
              <mxPoint x="859.53" y="1700" />
            </Array>
          </mxGeometry>
        </mxCell>
        <mxCell id="ujE0xhHbQEDL6SDgRYvv-109" style="edgeStyle=orthogonalEdgeStyle;rounded=0;orthogonalLoop=1;jettySize=auto;html=1;entryX=0;entryY=0.5;entryDx=0;entryDy=0;" edge="1" parent="1" source="ujE0xhHbQEDL6SDgRYvv-96" target="ujE0xhHbQEDL6SDgRYvv-98">
          <mxGeometry relative="1" as="geometry" />
        </mxCell>
        <mxCell id="ujE0xhHbQEDL6SDgRYvv-111" style="edgeStyle=orthogonalEdgeStyle;rounded=0;orthogonalLoop=1;jettySize=auto;html=1;entryX=0.5;entryY=0;entryDx=0;entryDy=0;" edge="1" parent="1" source="ujE0xhHbQEDL6SDgRYvv-88" target="ujE0xhHbQEDL6SDgRYvv-94">
          <mxGeometry relative="1" as="geometry" />
        </mxCell>
        <mxCell id="ujE0xhHbQEDL6SDgRYvv-115" style="edgeStyle=orthogonalEdgeStyle;rounded=0;orthogonalLoop=1;jettySize=auto;html=1;entryX=1;entryY=0.5;entryDx=0;entryDy=0;" edge="1" parent="1" source="ujE0xhHbQEDL6SDgRYvv-91" target="ujE0xhHbQEDL6SDgRYvv-114">
          <mxGeometry relative="1" as="geometry" />
        </mxCell>
        <mxCell id="ujE0xhHbQEDL6SDgRYvv-118" style="edgeStyle=orthogonalEdgeStyle;rounded=0;orthogonalLoop=1;jettySize=auto;html=1;entryX=0.5;entryY=0;entryDx=0;entryDy=0;" edge="1" parent="1" source="ujE0xhHbQEDL6SDgRYvv-120" target="ujE0xhHbQEDL6SDgRYvv-122">
          <mxGeometry relative="1" as="geometry" />
        </mxCell>
        <mxCell id="ujE0xhHbQEDL6SDgRYvv-119" style="edgeStyle=orthogonalEdgeStyle;rounded=0;orthogonalLoop=1;jettySize=auto;html=1;entryX=0;entryY=0.5;entryDx=0;entryDy=0;" edge="1" parent="1" source="ujE0xhHbQEDL6SDgRYvv-120" target="ujE0xhHbQEDL6SDgRYvv-125">
          <mxGeometry relative="1" as="geometry">
            <Array as="points">
              <mxPoint x="200.5" y="1860" />
              <mxPoint x="200.5" y="2740" />
            </Array>
          </mxGeometry>
        </mxCell>
        <mxCell id="ujE0xhHbQEDL6SDgRYvv-121" value="お届け先が未登録&lt;div&gt;である場合&lt;/div&gt;" style="text;html=1;align=center;verticalAlign=middle;resizable=0;points=[];autosize=1;strokeColor=none;fillColor=none;" vertex="1" parent="1">
          <mxGeometry x="300" y="1881" width="130" height="40" as="geometry" />
        </mxCell>
        <mxCell id="ujE0xhHbQEDL6SDgRYvv-122" value="お届け先の&lt;div&gt;登録ボタンを押下&lt;/div&gt;" style="rounded=1;whiteSpace=wrap;html=1;arcSize=40;" vertex="1" parent="1">
          <mxGeometry x="239.5" y="1920" width="120" height="40" as="geometry" />
        </mxCell>
        <mxCell id="ujE0xhHbQEDL6SDgRYvv-123" style="edgeStyle=orthogonalEdgeStyle;rounded=0;orthogonalLoop=1;jettySize=auto;html=1;entryX=0.5;entryY=0;entryDx=0;entryDy=0;" edge="1" parent="1" source="ujE0xhHbQEDL6SDgRYvv-124" target="ujE0xhHbQEDL6SDgRYvv-127">
          <mxGeometry relative="1" as="geometry" />
        </mxCell>
        <mxCell id="ujE0xhHbQEDL6SDgRYvv-124" value="お届け先を入力" style="rounded=1;whiteSpace=wrap;html=1;arcSize=40;" vertex="1" parent="1">
          <mxGeometry x="240" y="2000" width="120" height="40" as="geometry" />
        </mxCell>
        <mxCell id="JrYKbtGQ8v13GvmCwRtV-20" style="edgeStyle=orthogonalEdgeStyle;rounded=0;orthogonalLoop=1;jettySize=auto;html=1;entryX=0.5;entryY=0;entryDx=0;entryDy=0;" edge="1" parent="1" source="ujE0xhHbQEDL6SDgRYvv-125" target="JrYKbtGQ8v13GvmCwRtV-3">
          <mxGeometry relative="1" as="geometry" />
        </mxCell>
        <mxCell id="ujE0xhHbQEDL6SDgRYvv-125" value="&lt;font style=&quot;font-size: 12px;&quot;&gt;お届け先を選択&lt;/font&gt;" style="rounded=1;whiteSpace=wrap;html=1;arcSize=40;" vertex="1" parent="1">
          <mxGeometry x="240" y="2720" width="120" height="40" as="geometry" />
        </mxCell>
        <mxCell id="ujE0xhHbQEDL6SDgRYvv-127" value="登録ボタンを押下" style="rounded=1;whiteSpace=wrap;html=1;arcSize=40;" vertex="1" parent="1">
          <mxGeometry x="240" y="2079" width="120" height="40" as="geometry" />
        </mxCell>
        <mxCell id="ujE0xhHbQEDL6SDgRYvv-128" style="edgeStyle=orthogonalEdgeStyle;rounded=0;orthogonalLoop=1;jettySize=auto;html=1;entryX=0;entryY=0.5;entryDx=0;entryDy=0;" edge="1" parent="1" source="ujE0xhHbQEDL6SDgRYvv-129" target="ujE0xhHbQEDL6SDgRYvv-124">
          <mxGeometry relative="1" as="geometry">
            <Array as="points">
              <mxPoint x="299.5" y="2480" />
              <mxPoint x="220.5" y="2480" />
              <mxPoint x="220.5" y="2020" />
            </Array>
          </mxGeometry>
        </mxCell>
        <mxCell id="ujE0xhHbQEDL6SDgRYvv-129" value="エラー内容を&lt;div&gt;確認&lt;/div&gt;" style="rounded=1;whiteSpace=wrap;html=1;arcSize=40;" vertex="1" parent="1">
          <mxGeometry x="240" y="2400" width="120" height="40" as="geometry" />
        </mxCell>
        <mxCell id="ujE0xhHbQEDL6SDgRYvv-130" value="お届け先登録画面を表示" style="rounded=1;whiteSpace=wrap;html=1;arcSize=40;" vertex="1" parent="1">
          <mxGeometry x="521.5" y="1920" width="120" height="40" as="geometry" />
        </mxCell>
        <mxCell id="ujE0xhHbQEDL6SDgRYvv-131" style="edgeStyle=orthogonalEdgeStyle;rounded=0;orthogonalLoop=1;jettySize=auto;html=1;entryX=0.5;entryY=0;entryDx=0;entryDy=0;" edge="1" parent="1" source="ujE0xhHbQEDL6SDgRYvv-132" target="ujE0xhHbQEDL6SDgRYvv-133">
          <mxGeometry relative="1" as="geometry" />
        </mxCell>
        <mxCell id="ujE0xhHbQEDL6SDgRYvv-132" value="&lt;font style=&quot;font-size: 11px;&quot;&gt;お届け先&lt;span style=&quot;background-color: rgb(255, 255, 255);&quot;&gt;を登録した&lt;/span&gt;&lt;/font&gt;&lt;div style=&quot;font-size: 11px;&quot;&gt;&lt;span style=&quot;background-color: initial;&quot;&gt;&lt;font style=&quot;font-size: 11px;&quot;&gt;メッセージを表示&lt;/font&gt;&lt;/span&gt;&lt;/div&gt;" style="rounded=1;whiteSpace=wrap;html=1;arcSize=40;" vertex="1" parent="1">
          <mxGeometry x="519.5" y="2640" width="120" height="40" as="geometry" />
        </mxCell>
        <mxCell id="ujE0xhHbQEDL6SDgRYvv-133" value="&lt;font style=&quot;font-size: 12px;&quot;&gt;購入画面を表示&lt;/font&gt;" style="rounded=1;whiteSpace=wrap;html=1;arcSize=40;" vertex="1" parent="1">
          <mxGeometry x="519.5" y="2720" width="120" height="40" as="geometry" />
        </mxCell>
        <mxCell id="ujE0xhHbQEDL6SDgRYvv-134" value="&lt;font style=&quot;font-size: 11px;&quot;&gt;入力値の&lt;/font&gt;&lt;div style=&quot;font-size: 11px;&quot;&gt;&lt;font style=&quot;font-size: 11px;&quot;&gt;バリデーション&lt;/font&gt;&lt;/div&gt;" style="rounded=1;whiteSpace=wrap;html=1;arcSize=40;" vertex="1" parent="1">
          <mxGeometry x="519.5" y="2079" width="120" height="40" as="geometry" />
        </mxCell>
        <mxCell id="ujE0xhHbQEDL6SDgRYvv-135" value="適正な値でない場合" style="text;html=1;align=center;verticalAlign=middle;whiteSpace=wrap;rounded=0;" vertex="1" parent="1">
          <mxGeometry x="449.9999999999999" y="2150" width="110" height="30" as="geometry" />
        </mxCell>
        <mxCell id="ujE0xhHbQEDL6SDgRYvv-136" value="適正な値である場合" style="text;html=1;align=center;verticalAlign=middle;whiteSpace=wrap;rounded=0;" vertex="1" parent="1">
          <mxGeometry x="589.9999999999999" y="2200" width="110" height="30" as="geometry" />
        </mxCell>
        <mxCell id="ujE0xhHbQEDL6SDgRYvv-137" value="&lt;font style=&quot;font-size: 12px;&quot;&gt;エラー内容を表示&lt;/font&gt;" style="rounded=1;whiteSpace=wrap;html=1;arcSize=40;" vertex="1" parent="1">
          <mxGeometry x="519.5" y="2400" width="120" height="40" as="geometry" />
        </mxCell>
        <mxCell id="ujE0xhHbQEDL6SDgRYvv-138" style="edgeStyle=orthogonalEdgeStyle;rounded=0;orthogonalLoop=1;jettySize=auto;html=1;entryX=0;entryY=0.5;entryDx=0;entryDy=0;" edge="1" parent="1" source="ujE0xhHbQEDL6SDgRYvv-122" target="ujE0xhHbQEDL6SDgRYvv-130">
          <mxGeometry relative="1" as="geometry" />
        </mxCell>
        <mxCell id="ujE0xhHbQEDL6SDgRYvv-139" style="edgeStyle=orthogonalEdgeStyle;rounded=0;orthogonalLoop=1;jettySize=auto;html=1;entryX=1;entryY=0.5;entryDx=0;entryDy=0;" edge="1" parent="1" source="ujE0xhHbQEDL6SDgRYvv-130" target="ujE0xhHbQEDL6SDgRYvv-124">
          <mxGeometry relative="1" as="geometry">
            <Array as="points">
              <mxPoint x="582" y="2020" />
            </Array>
          </mxGeometry>
        </mxCell>
        <mxCell id="ujE0xhHbQEDL6SDgRYvv-140" value="&lt;span style=&quot;background-color: rgb(255, 255, 255); font-size: 11px;&quot;&gt;登録完了のレスポンス&lt;/span&gt;&lt;div style=&quot;background-color: rgb(255, 255, 255);&quot;&gt;&lt;span style=&quot;font-size: 11px;&quot;&gt;を返却&lt;/span&gt;&lt;/div&gt;" style="rounded=1;whiteSpace=wrap;html=1;arcSize=40;" vertex="1" parent="1">
          <mxGeometry x="799.5" y="2640" width="120" height="40" as="geometry" />
        </mxCell>
        <mxCell id="ujE0xhHbQEDL6SDgRYvv-141" value="&lt;span style=&quot;background-color: rgb(255, 255, 255); font-size: 11px;&quot;&gt;登録完了のレスポンス&lt;/span&gt;&lt;div style=&quot;background-color: rgb(255, 255, 255);&quot;&gt;&lt;span style=&quot;font-size: 11px;&quot;&gt;を返却&lt;/span&gt;&lt;/div&gt;" style="rounded=1;whiteSpace=wrap;html=1;arcSize=40;" vertex="1" parent="1">
          <mxGeometry x="1079.5" y="2640" width="120" height="40" as="geometry" />
        </mxCell>
        <mxCell id="ujE0xhHbQEDL6SDgRYvv-142" style="edgeStyle=orthogonalEdgeStyle;rounded=0;orthogonalLoop=1;jettySize=auto;html=1;entryX=1;entryY=0.5;entryDx=0;entryDy=0;" edge="1" parent="1" source="ujE0xhHbQEDL6SDgRYvv-141" target="ujE0xhHbQEDL6SDgRYvv-140">
          <mxGeometry relative="1" as="geometry" />
        </mxCell>
        <mxCell id="ujE0xhHbQEDL6SDgRYvv-143" style="edgeStyle=orthogonalEdgeStyle;rounded=0;orthogonalLoop=1;jettySize=auto;html=1;entryX=1;entryY=0.5;entryDx=0;entryDy=0;" edge="1" parent="1" source="ujE0xhHbQEDL6SDgRYvv-140" target="ujE0xhHbQEDL6SDgRYvv-132">
          <mxGeometry relative="1" as="geometry" />
        </mxCell>
        <mxCell id="ujE0xhHbQEDL6SDgRYvv-144" style="edgeStyle=orthogonalEdgeStyle;rounded=0;orthogonalLoop=1;jettySize=auto;html=1;entryX=1;entryY=0.5;entryDx=0;entryDy=0;" edge="1" parent="1" source="ujE0xhHbQEDL6SDgRYvv-133" target="ujE0xhHbQEDL6SDgRYvv-125">
          <mxGeometry relative="1" as="geometry" />
        </mxCell>
        <mxCell id="ujE0xhHbQEDL6SDgRYvv-145" style="edgeStyle=orthogonalEdgeStyle;rounded=0;orthogonalLoop=1;jettySize=auto;html=1;entryX=0;entryY=0.5;entryDx=0;entryDy=0;" edge="1" parent="1" source="ujE0xhHbQEDL6SDgRYvv-127" target="ujE0xhHbQEDL6SDgRYvv-134">
          <mxGeometry relative="1" as="geometry" />
        </mxCell>
        <mxCell id="ujE0xhHbQEDL6SDgRYvv-146" style="edgeStyle=orthogonalEdgeStyle;rounded=0;orthogonalLoop=1;jettySize=auto;html=1;entryX=0.5;entryY=0;entryDx=0;entryDy=0;exitX=0;exitY=0.5;exitDx=0;exitDy=0;" edge="1" parent="1" source="ujE0xhHbQEDL6SDgRYvv-148" target="ujE0xhHbQEDL6SDgRYvv-137">
          <mxGeometry relative="1" as="geometry">
            <Array as="points">
              <mxPoint x="480" y="2180" />
              <mxPoint x="480" y="2320" />
              <mxPoint x="580" y="2320" />
            </Array>
          </mxGeometry>
        </mxCell>
        <mxCell id="ujE0xhHbQEDL6SDgRYvv-147" style="edgeStyle=orthogonalEdgeStyle;rounded=0;orthogonalLoop=1;jettySize=auto;html=1;entryX=0.5;entryY=0;entryDx=0;entryDy=0;" edge="1" parent="1" source="ujE0xhHbQEDL6SDgRYvv-148" target="ujE0xhHbQEDL6SDgRYvv-149">
          <mxGeometry relative="1" as="geometry" />
        </mxCell>
        <mxCell id="ujE0xhHbQEDL6SDgRYvv-148" value="" style="rhombus;whiteSpace=wrap;html=1;" vertex="1" parent="1">
          <mxGeometry x="550.9000000000001" y="2161" width="57.76" height="39" as="geometry" />
        </mxCell>
        <mxCell id="ujE0xhHbQEDL6SDgRYvv-149" value="&lt;font style=&quot;font-size: 12px;&quot;&gt;お届け先&lt;span style=&quot;text-wrap: nowrap;&quot;&gt;情報&lt;/span&gt;登録　&lt;/font&gt;&lt;div&gt;&lt;font style=&quot;font-size: 12px;&quot;&gt;APIリクエストを送信&lt;/font&gt;&lt;/div&gt;" style="rounded=1;whiteSpace=wrap;html=1;arcSize=40;" vertex="1" parent="1">
          <mxGeometry x="519.78" y="2240" width="120" height="40" as="geometry" />
        </mxCell>
        <mxCell id="ujE0xhHbQEDL6SDgRYvv-150" style="edgeStyle=orthogonalEdgeStyle;rounded=0;orthogonalLoop=1;jettySize=auto;html=1;entryX=0.5;entryY=0;entryDx=0;entryDy=0;" edge="1" parent="1" source="ujE0xhHbQEDL6SDgRYvv-151" target="ujE0xhHbQEDL6SDgRYvv-154">
          <mxGeometry relative="1" as="geometry" />
        </mxCell>
        <mxCell id="ujE0xhHbQEDL6SDgRYvv-151" value="&lt;font style=&quot;font-size: 11px;&quot;&gt;入力値の&lt;/font&gt;&lt;div style=&quot;font-size: 11px;&quot;&gt;&lt;font style=&quot;font-size: 11px;&quot;&gt;バリデーション&lt;/font&gt;&lt;/div&gt;" style="rounded=1;whiteSpace=wrap;html=1;arcSize=40;" vertex="1" parent="1">
          <mxGeometry x="799.03" y="2240" width="120" height="40" as="geometry" />
        </mxCell>
        <mxCell id="ujE0xhHbQEDL6SDgRYvv-152" style="edgeStyle=orthogonalEdgeStyle;rounded=0;orthogonalLoop=1;jettySize=auto;html=1;entryX=0.5;entryY=0;entryDx=0;entryDy=0;" edge="1" parent="1" source="ujE0xhHbQEDL6SDgRYvv-154" target="ujE0xhHbQEDL6SDgRYvv-159">
          <mxGeometry relative="1" as="geometry" />
        </mxCell>
        <mxCell id="ujE0xhHbQEDL6SDgRYvv-153" style="edgeStyle=orthogonalEdgeStyle;rounded=0;orthogonalLoop=1;jettySize=auto;html=1;entryX=1;entryY=0.5;entryDx=0;entryDy=0;" edge="1" parent="1" source="ujE0xhHbQEDL6SDgRYvv-154" target="ujE0xhHbQEDL6SDgRYvv-157">
          <mxGeometry relative="1" as="geometry">
            <Array as="points">
              <mxPoint x="960" y="2340" />
              <mxPoint x="960" y="2500" />
            </Array>
          </mxGeometry>
        </mxCell>
        <mxCell id="ujE0xhHbQEDL6SDgRYvv-154" value="" style="rhombus;whiteSpace=wrap;html=1;" vertex="1" parent="1">
          <mxGeometry x="830.1500000000001" y="2321" width="57.76" height="39" as="geometry" />
        </mxCell>
        <mxCell id="ujE0xhHbQEDL6SDgRYvv-155" value="適正な値である場合" style="text;html=1;align=center;verticalAlign=middle;whiteSpace=wrap;rounded=0;" vertex="1" parent="1">
          <mxGeometry x="887.9099999999999" y="2310" width="110" height="30" as="geometry" />
        </mxCell>
        <mxCell id="ujE0xhHbQEDL6SDgRYvv-156" value="不正な値である場合" style="text;html=1;align=center;verticalAlign=middle;whiteSpace=wrap;rounded=0;" vertex="1" parent="1">
          <mxGeometry x="739.53" y="2359" width="110" height="30" as="geometry" />
        </mxCell>
        <mxCell id="ujE0xhHbQEDL6SDgRYvv-157" value="お届け先&lt;span style=&quot;text-wrap: nowrap;&quot;&gt;情報&lt;/span&gt;&lt;span style=&quot;font-size: 11px;&quot;&gt;を登録&lt;/span&gt;" style="rounded=1;whiteSpace=wrap;html=1;arcSize=40;" vertex="1" parent="1">
          <mxGeometry x="799.03" y="2480" width="120" height="40" as="geometry" />
        </mxCell>
        <mxCell id="ujE0xhHbQEDL6SDgRYvv-158" style="edgeStyle=orthogonalEdgeStyle;rounded=0;orthogonalLoop=1;jettySize=auto;html=1;entryX=1;entryY=0.5;entryDx=0;entryDy=0;" edge="1" parent="1" source="ujE0xhHbQEDL6SDgRYvv-159" target="ujE0xhHbQEDL6SDgRYvv-137">
          <mxGeometry relative="1" as="geometry" />
        </mxCell>
        <mxCell id="ujE0xhHbQEDL6SDgRYvv-159" value="&lt;span style=&quot;font-size: 11px;&quot;&gt;エラーを返却&lt;/span&gt;" style="rounded=1;whiteSpace=wrap;html=1;arcSize=40;" vertex="1" parent="1">
          <mxGeometry x="799.03" y="2400" width="120" height="40" as="geometry" />
        </mxCell>
        <mxCell id="ujE0xhHbQEDL6SDgRYvv-160" style="edgeStyle=orthogonalEdgeStyle;rounded=0;orthogonalLoop=1;jettySize=auto;html=1;entryX=0.5;entryY=0;entryDx=0;entryDy=0;" edge="1" parent="1" source="ujE0xhHbQEDL6SDgRYvv-161" target="ujE0xhHbQEDL6SDgRYvv-141">
          <mxGeometry relative="1" as="geometry" />
        </mxCell>
        <mxCell id="ujE0xhHbQEDL6SDgRYvv-161" value="お届け先&lt;span style=&quot;text-wrap: nowrap;&quot;&gt;情報&lt;/span&gt;&lt;span style=&quot;font-size: 11px;&quot;&gt;を登録&lt;/span&gt;" style="rounded=1;whiteSpace=wrap;html=1;arcSize=40;" vertex="1" parent="1">
          <mxGeometry x="1079.53" y="2560" width="120" height="40" as="geometry" />
        </mxCell>
        <mxCell id="ujE0xhHbQEDL6SDgRYvv-162" style="edgeStyle=orthogonalEdgeStyle;rounded=0;orthogonalLoop=1;jettySize=auto;html=1;entryX=0;entryY=0.5;entryDx=0;entryDy=0;" edge="1" parent="1" source="ujE0xhHbQEDL6SDgRYvv-157" target="ujE0xhHbQEDL6SDgRYvv-161">
          <mxGeometry relative="1" as="geometry">
            <Array as="points">
              <mxPoint x="859.53" y="2580" />
            </Array>
          </mxGeometry>
        </mxCell>
        <mxCell id="ujE0xhHbQEDL6SDgRYvv-163" style="edgeStyle=orthogonalEdgeStyle;rounded=0;orthogonalLoop=1;jettySize=auto;html=1;entryX=0;entryY=0.5;entryDx=0;entryDy=0;" edge="1" parent="1" source="ujE0xhHbQEDL6SDgRYvv-149" target="ujE0xhHbQEDL6SDgRYvv-151">
          <mxGeometry relative="1" as="geometry" />
        </mxCell>
        <mxCell id="ujE0xhHbQEDL6SDgRYvv-164" style="edgeStyle=orthogonalEdgeStyle;rounded=0;orthogonalLoop=1;jettySize=auto;html=1;entryX=0.5;entryY=0;entryDx=0;entryDy=0;" edge="1" parent="1" source="ujE0xhHbQEDL6SDgRYvv-134" target="ujE0xhHbQEDL6SDgRYvv-148">
          <mxGeometry relative="1" as="geometry" />
        </mxCell>
        <mxCell id="ujE0xhHbQEDL6SDgRYvv-165" style="edgeStyle=orthogonalEdgeStyle;rounded=0;orthogonalLoop=1;jettySize=auto;html=1;entryX=1;entryY=0.5;entryDx=0;entryDy=0;" edge="1" parent="1" source="ujE0xhHbQEDL6SDgRYvv-137" target="ujE0xhHbQEDL6SDgRYvv-129">
          <mxGeometry relative="1" as="geometry" />
        </mxCell>
        <mxCell id="ujE0xhHbQEDL6SDgRYvv-166" style="edgeStyle=orthogonalEdgeStyle;rounded=0;orthogonalLoop=1;jettySize=auto;html=1;entryX=1;entryY=0.5;entryDx=0;entryDy=0;" edge="1" parent="1" source="ujE0xhHbQEDL6SDgRYvv-75" target="ujE0xhHbQEDL6SDgRYvv-82">
          <mxGeometry relative="1" as="geometry" />
        </mxCell>
        <mxCell id="ujE0xhHbQEDL6SDgRYvv-167" style="edgeStyle=orthogonalEdgeStyle;rounded=0;orthogonalLoop=1;jettySize=auto;html=1;entryX=1;entryY=0.5;entryDx=0;entryDy=0;" edge="1" parent="1" source="ujE0xhHbQEDL6SDgRYvv-82" target="3yCVu83lC0UBpUjsyana-90">
          <mxGeometry relative="1" as="geometry" />
        </mxCell>
        <mxCell id="ujE0xhHbQEDL6SDgRYvv-177" style="edgeStyle=orthogonalEdgeStyle;rounded=0;orthogonalLoop=1;jettySize=auto;html=1;entryX=0;entryY=0.5;entryDx=0;entryDy=0;exitX=1;exitY=0.5;exitDx=0;exitDy=0;" edge="1" parent="1" source="JrYKbtGQ8v13GvmCwRtV-32" target="ujE0xhHbQEDL6SDgRYvv-171">
          <mxGeometry relative="1" as="geometry">
            <mxPoint x="639.5" y="3340" as="sourcePoint" />
          </mxGeometry>
        </mxCell>
        <mxCell id="ujE0xhHbQEDL6SDgRYvv-178" style="edgeStyle=orthogonalEdgeStyle;rounded=0;orthogonalLoop=1;jettySize=auto;html=1;entryX=0;entryY=0.5;entryDx=0;entryDy=0;" edge="1" parent="1" source="ujE0xhHbQEDL6SDgRYvv-171" target="ujE0xhHbQEDL6SDgRYvv-172">
          <mxGeometry relative="1" as="geometry" />
        </mxCell>
        <mxCell id="ujE0xhHbQEDL6SDgRYvv-181" style="edgeStyle=orthogonalEdgeStyle;rounded=0;orthogonalLoop=1;jettySize=auto;html=1;entryX=1;entryY=0.5;entryDx=0;entryDy=0;" edge="1" parent="1" source="ujE0xhHbQEDL6SDgRYvv-174" target="ujE0xhHbQEDL6SDgRYvv-180">
          <mxGeometry relative="1" as="geometry" />
        </mxCell>
        <mxCell id="ujE0xhHbQEDL6SDgRYvv-182" style="edgeStyle=orthogonalEdgeStyle;rounded=0;orthogonalLoop=1;jettySize=auto;html=1;entryX=1;entryY=0.5;entryDx=0;entryDy=0;" edge="1" parent="1" source="ujE0xhHbQEDL6SDgRYvv-180" target="3yCVu83lC0UBpUjsyana-39">
          <mxGeometry relative="1" as="geometry" />
        </mxCell>
        <mxCell id="JrYKbtGQ8v13GvmCwRtV-15" style="edgeStyle=orthogonalEdgeStyle;rounded=0;orthogonalLoop=1;jettySize=auto;html=1;entryX=0;entryY=0.5;entryDx=0;entryDy=0;" edge="1" parent="1" source="JrYKbtGQ8v13GvmCwRtV-8" target="JrYKbtGQ8v13GvmCwRtV-14">
          <mxGeometry relative="1" as="geometry" />
        </mxCell>
        <mxCell id="JrYKbtGQ8v13GvmCwRtV-22" style="edgeStyle=orthogonalEdgeStyle;rounded=0;orthogonalLoop=1;jettySize=auto;html=1;entryX=0.5;entryY=1;entryDx=0;entryDy=0;" edge="1" parent="1" source="JrYKbtGQ8v13GvmCwRtV-19" target="JrYKbtGQ8v13GvmCwRtV-7">
          <mxGeometry relative="1" as="geometry" />
        </mxCell>
        <mxCell id="JrYKbtGQ8v13GvmCwRtV-28" style="edgeStyle=orthogonalEdgeStyle;rounded=0;orthogonalLoop=1;jettySize=auto;html=1;entryX=1;entryY=0.5;entryDx=0;entryDy=0;" edge="1" parent="1" source="JrYKbtGQ8v13GvmCwRtV-23" target="JrYKbtGQ8v13GvmCwRtV-27">
          <mxGeometry relative="1" as="geometry" />
        </mxCell>
        <mxCell id="JrYKbtGQ8v13GvmCwRtV-30" style="edgeStyle=orthogonalEdgeStyle;rounded=0;orthogonalLoop=1;jettySize=auto;html=1;entryX=1;entryY=0.5;entryDx=0;entryDy=0;" edge="1" parent="1" source="JrYKbtGQ8v13GvmCwRtV-27" target="JrYKbtGQ8v13GvmCwRtV-29">
          <mxGeometry relative="1" as="geometry" />
        </mxCell>
        <mxCell id="JrYKbtGQ8v13GvmCwRtV-33" style="edgeStyle=orthogonalEdgeStyle;rounded=0;orthogonalLoop=1;jettySize=auto;html=1;entryX=0;entryY=0.5;entryDx=0;entryDy=0;" edge="1" parent="1" source="JrYKbtGQ8v13GvmCwRtV-29" target="JrYKbtGQ8v13GvmCwRtV-32">
          <mxGeometry relative="1" as="geometry">
            <Array as="points">
              <mxPoint x="299" y="3340" />
            </Array>
          </mxGeometry>
        </mxCell>
        <mxCell id="JrYKbtGQ8v13GvmCwRtV-51" style="edgeStyle=orthogonalEdgeStyle;rounded=0;orthogonalLoop=1;jettySize=auto;html=1;entryX=0;entryY=0.5;entryDx=0;entryDy=0;" edge="1" parent="1" source="JrYKbtGQ8v13GvmCwRtV-3" target="JrYKbtGQ8v13GvmCwRtV-5">
          <mxGeometry relative="1" as="geometry" />
        </mxCell>
      </root>
    </mxGraphModel>
  </diagram>
</mxfile>
